<?xml version="1.0" encoding="UTF-8"?>
<svg xmlns="http://www.w3.org/2000/svg" xmlns:xlink="http://www.w3.org/1999/xlink" width="3872.98" height="3872.98" viewBox="0 0 3872.98 3872.98">
<defs>
<clipPath id="clip-0">
<path clip-rule="nonzero" d="M 842 697 L 3031 697 L 3031 3176 L 842 3176 Z M 842 697 "/>
</clipPath>
<clipPath id="clip-1">
<path clip-rule="evenodd" d="M 2393.859375 1271.898438 L 2456.78125 1334.808594 L 2512 1328.089844 L 2603.71875 1236.371094 C 2562.601562 1239.488281 2517.199219 1250.21875 2498.070312 1231.078125 C 2478.921875 1211.929688 2489.679688 1166.210938 2492.789062 1124.949219 L 2400.578125 1216.191406 Z M 2118.75 2042.691406 L 1990.699219 2042.691406 C 1972.378906 2173.328125 1859.75 2273.679688 1723.929688 2273.679688 C 1575.039062 2273.679688 1454.519531 2152.671875 1454.519531 2004.28125 C 1454.519531 1868.46875 1555.210938 1756.28125 1685.511719 1737.601562 L 1685.511719 1609.449219 C 1484.53125 1628.839844 1327.25 1798.691406 1327.25 2004.28125 C 1327.25 2223.25 1505.421875 2400.941406 1723.929688 2400.941406 C 1929.929688 2400.941406 2099.359375 2243.28125 2118.75 2042.691406 Z M 2323.441406 2042.691406 L 2195.890625 2042.691406 C 2176.289062 2286.011719 1972.25 2477.78125 1723.929688 2477.78125 C 1462.671875 2477.78125 1250.398438 2265.519531 1250.398438 2004.28125 C 1250.398438 1755.949219 1442.179688 1551.910156 1685.511719 1532.308594 L 1685.511719 1404.75 C 1371.988281 1424.621094 1123.148438 1685.808594 1123.148438 2004.28125 C 1123.148438 2335.628906 1392.558594 2605.058594 1723.929688 2605.058594 C 2042.390625 2605.058594 2303.578125 2356.199219 2323.441406 2042.691406 Z M 2211.449219 2738.460938 C 2131.179688 2791.960938 2041.679688 2832.699219 1945.910156 2857.640625 L 2085.058594 3098.730469 L 2419.308594 3098.730469 Z M 1502.339844 2857.769531 C 1406.539062 2832.878906 1317.019531 2792.238281 1236.691406 2738.789062 L 1029.019531 3098.730469 L 1363.269531 3098.730469 Z M 2527.878906 2042.691406 L 2400.441406 2042.691406 C 2380.449219 2398.488281 2084.648438 2681.878906 1723.929688 2681.878906 C 1350.308594 2681.878906 1046.300781 2377.890625 1046.300781 2004.28125 C 1046.300781 1643.53125 1329.691406 1347.761719 1685.511719 1327.761719 L 1685.511719 1200.320312 C 1259.539062 1220.449219 919.039062 1573.410156 919.039062 2004.28125 C 919.039062 2448.019531 1280.179688 2809.160156 1723.929688 2809.160156 C 2154.800781 2809.160156 2507.738281 2468.660156 2527.878906 2042.691406 Z M 2759.320312 2083.03125 L 2889 2083.03125 C 2857.011719 2055.570312 2817.921875 2031.71875 2817.921875 2004.261719 C 2817.921875 1977.109375 2858.191406 1951.71875 2889 1925.03125 L 2759.808594 1925.03125 L 2715.628906 1959.601562 L 2715.628906 2048.929688 Z M 1884.789062 1898.050781 L 1817.050781 1965.839844 L 1912.800781 1965.839844 C 1907.890625 1941.230469 1898.21875 1918.308594 1884.789062 1898.050781 Z M 2030.320312 1752.421875 L 1939.699219 1843.101562 C 1966.101562 1878.371094 1984.058594 1920.300781 1990.578125 1965.839844 L 2118.75 1965.839844 C 2111.011719 1885.230469 2079.050781 1811.648438 2030.320312 1752.421875 Z M 2174.890625 1607.738281 L 2084.789062 1697.929688 C 2147.230469 1771.378906 2187.691406 1864.109375 2195.890625 1965.839844 L 2323.441406 1965.839844 C 2314.769531 1829.058594 2260.148438 1704.601562 2174.890625 1607.738281 Z M 2319.261719 1463.269531 L 2229.21875 1553.378906 C 2328.320312 1664.300781 2391.558594 1807.929688 2400.441406 1965.839844 L 2527.878906 1965.839844 C 2518.761719 1772.859375 2441.320312 1597.441406 2319.261719 1463.269531 Z M 2174.910156 1499.039062 L 2264.96875 1408.960938 C 2130.78125 1286.898438 1955.339844 1209.441406 1762.339844 1200.320312 L 1762.339844 1327.761719 C 1920.300781 1336.640625 2063.941406 1399.890625 2174.910156 1499.039062 Z M 2030.398438 1643.53125 L 2120.539062 1553.390625 C 2023.679688 1468.070312 1899.179688 1413.410156 1762.339844 1404.75 L 1762.339844 1532.308594 C 1864.148438 1540.511719 1956.921875 1581.019531 2030.398438 1643.53125 Z M 1885.289062 1788.640625 L 1975.929688 1698.011719 C 1916.660156 1649.191406 1843.039062 1617.210938 1762.339844 1609.449219 L 1762.339844 1737.589844 C 1808.039062 1744.128906 1850.011719 1762.171875 1885.289062 1788.640625 Z M 1762.339844 1911.589844 L 1830.300781 1843.628906 C 1810.011719 1830.210938 1787.039062 1820.5 1762.339844 1815.519531 Z M 1723.929688 2042.691406 C 1723.140625 2042.691406 1722.378906 2042.648438 1721.609375 2042.609375 L 1721.398438 2042.609375 L 1720.761719 2042.570312 L 1720.648438 2042.550781 C 1706.828125 2041.609375 1697.148438 2034.648438 1691.589844 2025.269531 C 1686.828125 2017.890625 1684.570312 2008.960938 1685.511719 2000.121094 L 1685.511719 1815.550781 C 1597.699219 1833.429688 1531.351562 1911.289062 1531.351562 2004.28125 C 1531.351562 2110.398438 1617.789062 2196.851562 1723.929688 2196.851562 C 1816.910156 2196.851562 1894.78125 2130.488281 1912.648438 2042.691406 Z M 1679.730469 1013.050781 L 1768.589844 1013.050781 L 1802.691406 969.351562 L 1802.691406 839.679688 C 1775.230469 871.671875 1751.378906 910.761719 1723.921875 910.761719 C 1696.761719 910.761719 1671.371094 870.480469 1644.679688 839.679688 L 1644.679688 968.859375 Z M 2638.308594 2042.691406 L 2604.761719 2042.691406 C 2593.429688 2305.378906 2466.46875 2538.710938 2273.679688 2692.96875 L 2519.210938 3117.941406 C 2533.898438 3143.769531 2515.289062 3175.578125 2485.601562 3175.578125 L 2062.980469 3175.578125 C 2049.050781 3175.578125 2036.558594 3168.371094 2029.851562 3156.351562 L 1867.070312 2874.300781 C 1820.449219 2881.949219 1772.671875 2885.980469 1723.929688 2885.980469 C 1675.339844 2885.980469 1627.679688 2881.980469 1581.210938 2874.378906 L 1418.5 3156.371094 C 1411.289062 3168.371094 1398.808594 3175.578125 1384.871094 3175.578125 L 962.265625 3175.578125 C 931.851562 3175.578125 914.988281 3142.800781 929.125 3117.941406 L 1174.460938 2693.328125 C 972.117188 2531.679688 842.203125 2282.980469 842.203125 2004.261719 C 842.203125 1531.128906 1216.800781 1143.609375 1685.511719 1123.421875 L 1685.511719 1089.878906 L 1660.539062 1089.878906 C 1648.53125 1089.878906 1637.480469 1084.609375 1630.28125 1074.988281 C 1609.46875 1047.640625 1568.328125 1004.28125 1568.328125 981.828125 L 1568.328125 735.949219 C 1568.328125 701.359375 1612.308594 683.140625 1635.570312 710.980469 L 1723.929688 813.261719 L 1811.820312 710.980469 C 1835.210938 684.089844 1879.058594 700.820312 1879.058594 735.949219 L 1879.058594 982.308594 C 1879.058594 1005.050781 1838.339844 1046.96875 1817.109375 1075 C 1810.371094 1084.128906 1799.328125 1089.878906 1787.320312 1089.878906 L 1762.339844 1089.878906 L 1762.339844 1123.421875 C 1976.519531 1132.640625 2171.171875 1218.648438 2319.359375 1354.558594 L 2343.429688 1330.488281 L 2326.140625 1313.199219 C 2317.980469 1305.039062 2313.671875 1293.019531 2315.109375 1281.5 C 2319.378906 1246.699219 2320.5 1187.730469 2336.71875 1171.53125 L 2510.558594 997.691406 C 2535.699219 972.550781 2578.78125 992.390625 2575.878906 1027.941406 L 2565.800781 1162.878906 L 2700.261719 1152.808594 C 2735.679688 1149.859375 2755.398438 1192.691406 2730.519531 1218.121094 L 2556.179688 1392.441406 C 2539.730469 1408.898438 2478.53125 1409.601562 2442.851562 1413.558594 C 2432.769531 1413.558594 2423.160156 1409.730469 2415.46875 1402.519531 L 2397.699219 1384.761719 L 2373.648438 1408.839844 C 2509.539062 1556.96875 2595.539062 1751.570312 2604.761719 1965.839844 L 2638.308594 1965.839844 L 2638.308594 1941.359375 C 2638.308594 1929.351562 2643.589844 1918.308594 2653.199219 1911.101562 C 2680.980469 1889.871094 2723.699219 1848.671875 2746.378906 1848.671875 L 2992.238281 1848.660156 C 3026.828125 1848.660156 3045.050781 1892.648438 3017.21875 1915.910156 L 2914.941406 2004.28125 L 3017.21875 2092.148438 C 3043.871094 2115.320312 3027.738281 2159.859375 2992.238281 2159.859375 L 2745.878906 2159.859375 C 2723.761719 2159.859375 2679.140625 2118.25 2653.199219 2097.910156 C 2644.058594 2090.71875 2638.308594 2079.660156 2638.308594 2067.671875 L 2638.308594 2042.691406 "/>
</clipPath>
<linearGradient id="linear-pattern-0" gradientUnits="userSpaceOnUse" x1="0" y1="0" x2="1.013092" y2="0" gradientTransform="matrix(2174.38, 0, 0, 2174.38, 842.202, 1936.49)">
<stop offset="0" stop-color="rgb(94.508362%, 95.684814%, 98.03772%)" stop-opacity="1"/>
<stop offset="0.0078125" stop-color="rgb(94.313049%, 95.550537%, 97.975159%)" stop-opacity="1"/>
<stop offset="0.015625" stop-color="rgb(93.922424%, 95.280457%, 97.851562%)" stop-opacity="1"/>
<stop offset="0.0234375" stop-color="rgb(93.531799%, 95.010376%, 97.727966%)" stop-opacity="1"/>
<stop offset="0.0273438" stop-color="rgb(93.139648%, 94.740295%, 97.602844%)" stop-opacity="1"/>
<stop offset="0.03125" stop-color="rgb(92.944336%, 94.606018%, 97.541809%)" stop-opacity="1"/>
<stop offset="0.0390625" stop-color="rgb(92.749023%, 94.470215%, 97.479248%)" stop-opacity="1"/>
<stop offset="0.046875" stop-color="rgb(92.358398%, 94.200134%, 97.355652%)" stop-opacity="1"/>
<stop offset="0.0507812" stop-color="rgb(91.966248%, 93.930054%, 97.23053%)" stop-opacity="1"/>
<stop offset="0.0546875" stop-color="rgb(91.770935%, 93.795776%, 97.169495%)" stop-opacity="1"/>
<stop offset="0.0625" stop-color="rgb(91.575623%, 93.659973%, 97.106934%)" stop-opacity="1"/>
<stop offset="0.0703125" stop-color="rgb(91.184998%, 93.389893%, 96.983337%)" stop-opacity="1"/>
<stop offset="0.0742188" stop-color="rgb(90.792847%, 93.119812%, 96.858215%)" stop-opacity="1"/>
<stop offset="0.078125" stop-color="rgb(90.597534%, 92.985535%, 96.79718%)" stop-opacity="1"/>
<stop offset="0.0859375" stop-color="rgb(90.402222%, 92.849731%, 96.734619%)" stop-opacity="1"/>
<stop offset="0.09375" stop-color="rgb(90.011597%, 92.579651%, 96.609497%)" stop-opacity="1"/>
<stop offset="0.101562" stop-color="rgb(89.620972%, 92.30957%, 96.485901%)" stop-opacity="1"/>
<stop offset="0.105469" stop-color="rgb(89.228821%, 92.03949%, 96.362305%)" stop-opacity="1"/>
<stop offset="0.109375" stop-color="rgb(89.033508%, 91.905212%, 96.299744%)" stop-opacity="1"/>
<stop offset="0.117188" stop-color="rgb(88.838196%, 91.769409%, 96.237183%)" stop-opacity="1"/>
<stop offset="0.125" stop-color="rgb(88.447571%, 91.499329%, 96.113586%)" stop-opacity="1"/>
<stop offset="0.128906" stop-color="rgb(88.05542%, 91.229248%, 95.98999%)" stop-opacity="1"/>
<stop offset="0.132812" stop-color="rgb(87.860107%, 91.094971%, 95.927429%)" stop-opacity="1"/>
<stop offset="0.140625" stop-color="rgb(87.664795%, 90.959167%, 95.864868%)" stop-opacity="1"/>
<stop offset="0.148438" stop-color="rgb(87.27417%, 90.689087%, 95.741272%)" stop-opacity="1"/>
<stop offset="0.152344" stop-color="rgb(86.882019%, 90.419006%, 95.617676%)" stop-opacity="1"/>
<stop offset="0.15625" stop-color="rgb(86.686707%, 90.284729%, 95.555115%)" stop-opacity="1"/>
<stop offset="0.164062" stop-color="rgb(86.491394%, 90.148926%, 95.492554%)" stop-opacity="1"/>
<stop offset="0.171875" stop-color="rgb(86.100769%, 89.878845%, 95.368958%)" stop-opacity="1"/>
<stop offset="0.179688" stop-color="rgb(85.710144%, 89.608765%, 95.243835%)" stop-opacity="1"/>
<stop offset="0.183594" stop-color="rgb(85.317993%, 89.338684%, 95.120239%)" stop-opacity="1"/>
<stop offset="0.1875" stop-color="rgb(85.122681%, 89.204407%, 95.059204%)" stop-opacity="1"/>
<stop offset="0.195312" stop-color="rgb(84.927368%, 89.068604%, 94.996643%)" stop-opacity="1"/>
<stop offset="0.203125" stop-color="rgb(84.536743%, 88.798523%, 94.871521%)" stop-opacity="1"/>
<stop offset="0.207031" stop-color="rgb(84.144592%, 88.528442%, 94.747925%)" stop-opacity="1"/>
<stop offset="0.210938" stop-color="rgb(83.94928%, 88.394165%, 94.68689%)" stop-opacity="1"/>
<stop offset="0.21875" stop-color="rgb(83.753967%, 88.258362%, 94.624329%)" stop-opacity="1"/>
<stop offset="0.226562" stop-color="rgb(83.363342%, 87.988281%, 94.499207%)" stop-opacity="1"/>
<stop offset="0.230469" stop-color="rgb(82.971191%, 87.718201%, 94.37561%)" stop-opacity="1"/>
<stop offset="0.234375" stop-color="rgb(82.775879%, 87.583923%, 94.314575%)" stop-opacity="1"/>
<stop offset="0.242188" stop-color="rgb(82.580566%, 87.44812%, 94.252014%)" stop-opacity="1"/>
<stop offset="0.25" stop-color="rgb(82.189941%, 87.17804%, 94.126892%)" stop-opacity="1"/>
<stop offset="0.257813" stop-color="rgb(81.799316%, 86.907959%, 94.003296%)" stop-opacity="1"/>
<stop offset="0.261719" stop-color="rgb(81.407166%, 86.639404%, 93.878174%)" stop-opacity="1"/>
<stop offset="0.265625" stop-color="rgb(81.211853%, 86.505127%, 93.817139%)" stop-opacity="1"/>
<stop offset="0.273438" stop-color="rgb(81.016541%, 86.369324%, 93.754578%)" stop-opacity="1"/>
<stop offset="0.28125" stop-color="rgb(80.625916%, 86.099243%, 93.630981%)" stop-opacity="1"/>
<stop offset="0.285156" stop-color="rgb(80.233765%, 85.829163%, 93.505859%)" stop-opacity="1"/>
<stop offset="0.289062" stop-color="rgb(80.038452%, 85.694885%, 93.444824%)" stop-opacity="1"/>
<stop offset="0.296875" stop-color="rgb(79.84314%, 85.559082%, 93.382263%)" stop-opacity="1"/>
<stop offset="0.304688" stop-color="rgb(79.452515%, 85.289001%, 93.258667%)" stop-opacity="1"/>
<stop offset="0.308594" stop-color="rgb(79.060364%, 85.018921%, 93.133545%)" stop-opacity="1"/>
<stop offset="0.3125" stop-color="rgb(78.865051%, 84.884644%, 93.07251%)" stop-opacity="1"/>
<stop offset="0.320312" stop-color="rgb(78.669739%, 84.74884%, 93.009949%)" stop-opacity="1"/>
<stop offset="0.328125" stop-color="rgb(78.279114%, 84.47876%, 92.884827%)" stop-opacity="1"/>
<stop offset="0.335938" stop-color="rgb(77.888489%, 84.208679%, 92.76123%)" stop-opacity="1"/>
<stop offset="0.339844" stop-color="rgb(77.496338%, 83.938599%, 92.637634%)" stop-opacity="1"/>
<stop offset="0.34375" stop-color="rgb(77.301025%, 83.804321%, 92.575073%)" stop-opacity="1"/>
<stop offset="0.351562" stop-color="rgb(77.105713%, 83.668518%, 92.512512%)" stop-opacity="1"/>
<stop offset="0.359375" stop-color="rgb(76.715088%, 83.398438%, 92.388916%)" stop-opacity="1"/>
<stop offset="0.363281" stop-color="rgb(76.322937%, 83.128357%, 92.26532%)" stop-opacity="1"/>
<stop offset="0.367187" stop-color="rgb(76.127625%, 82.99408%, 92.202759%)" stop-opacity="1"/>
<stop offset="0.375" stop-color="rgb(75.932312%, 82.858276%, 92.140198%)" stop-opacity="1"/>
<stop offset="0.382813" stop-color="rgb(75.541687%, 82.588196%, 92.016602%)" stop-opacity="1"/>
<stop offset="0.386719" stop-color="rgb(75.149536%, 82.318115%, 91.893005%)" stop-opacity="1"/>
<stop offset="0.390625" stop-color="rgb(74.954224%, 82.183838%, 91.830444%)" stop-opacity="1"/>
<stop offset="0.398438" stop-color="rgb(74.758911%, 82.048035%, 91.767883%)" stop-opacity="1"/>
<stop offset="0.40625" stop-color="rgb(74.368286%, 81.777954%, 91.644287%)" stop-opacity="1"/>
<stop offset="0.414062" stop-color="rgb(73.977661%, 81.507874%, 91.519165%)" stop-opacity="1"/>
<stop offset="0.417969" stop-color="rgb(73.58551%, 81.237793%, 91.395569%)" stop-opacity="1"/>
<stop offset="0.421875" stop-color="rgb(73.390198%, 81.103516%, 91.334534%)" stop-opacity="1"/>
<stop offset="0.429688" stop-color="rgb(73.194885%, 80.967712%, 91.271973%)" stop-opacity="1"/>
<stop offset="0.4375" stop-color="rgb(72.80426%, 80.697632%, 91.146851%)" stop-opacity="1"/>
<stop offset="0.441406" stop-color="rgb(72.412109%, 80.427551%, 91.023254%)" stop-opacity="1"/>
<stop offset="0.445312" stop-color="rgb(72.216797%, 80.293274%, 90.962219%)" stop-opacity="1"/>
<stop offset="0.453125" stop-color="rgb(72.021484%, 80.157471%, 90.899658%)" stop-opacity="1"/>
<stop offset="0.460938" stop-color="rgb(71.630859%, 79.88739%, 90.774536%)" stop-opacity="1"/>
<stop offset="0.464844" stop-color="rgb(71.238708%, 79.61731%, 90.65094%)" stop-opacity="1"/>
<stop offset="0.46875" stop-color="rgb(71.043396%, 79.483032%, 90.589905%)" stop-opacity="1"/>
<stop offset="0.476562" stop-color="rgb(70.848083%, 79.347229%, 90.527344%)" stop-opacity="1"/>
<stop offset="0.484375" stop-color="rgb(70.457458%, 79.077148%, 90.402222%)" stop-opacity="1"/>
<stop offset="0.492187" stop-color="rgb(70.066833%, 78.807068%, 90.278625%)" stop-opacity="1"/>
<stop offset="0.496094" stop-color="rgb(69.674683%, 78.536987%, 90.153503%)" stop-opacity="1"/>
<stop offset="0.5" stop-color="rgb(69.47937%, 78.40271%, 90.092468%)" stop-opacity="1"/>
<stop offset="0.507812" stop-color="rgb(69.284058%, 78.266907%, 90.029907%)" stop-opacity="1"/>
<stop offset="0.515625" stop-color="rgb(68.893433%, 77.996826%, 89.906311%)" stop-opacity="1"/>
<stop offset="0.519531" stop-color="rgb(68.501282%, 77.728271%, 89.781189%)" stop-opacity="1"/>
<stop offset="0.523438" stop-color="rgb(68.305969%, 77.593994%, 89.720154%)" stop-opacity="1"/>
<stop offset="0.53125" stop-color="rgb(68.110657%, 77.458191%, 89.657593%)" stop-opacity="1"/>
<stop offset="0.539063" stop-color="rgb(67.720032%, 77.18811%, 89.533997%)" stop-opacity="1"/>
<stop offset="0.542969" stop-color="rgb(67.327881%, 76.91803%, 89.408875%)" stop-opacity="1"/>
<stop offset="0.546875" stop-color="rgb(67.132568%, 76.783752%, 89.347839%)" stop-opacity="1"/>
<stop offset="0.554688" stop-color="rgb(66.937256%, 76.647949%, 89.285278%)" stop-opacity="1"/>
<stop offset="0.5625" stop-color="rgb(66.546631%, 76.377869%, 89.161682%)" stop-opacity="1"/>
<stop offset="0.566406" stop-color="rgb(66.15448%, 76.107788%, 89.03656%)" stop-opacity="1"/>
<stop offset="0.570312" stop-color="rgb(65.959167%, 75.973511%, 88.975525%)" stop-opacity="1"/>
<stop offset="0.578125" stop-color="rgb(65.763855%, 75.837708%, 88.912964%)" stop-opacity="1"/>
<stop offset="0.585938" stop-color="rgb(65.37323%, 75.567627%, 88.787842%)" stop-opacity="1"/>
<stop offset="0.59375" stop-color="rgb(64.982605%, 75.297546%, 88.664246%)" stop-opacity="1"/>
<stop offset="0.597656" stop-color="rgb(64.590454%, 75.027466%, 88.540649%)" stop-opacity="1"/>
<stop offset="0.601562" stop-color="rgb(64.395142%, 74.893188%, 88.478088%)" stop-opacity="1"/>
<stop offset="0.609375" stop-color="rgb(64.199829%, 74.757385%, 88.415527%)" stop-opacity="1"/>
<stop offset="0.617188" stop-color="rgb(63.809204%, 74.487305%, 88.291931%)" stop-opacity="1"/>
<stop offset="0.621094" stop-color="rgb(63.417053%, 74.217224%, 88.168335%)" stop-opacity="1"/>
<stop offset="0.625" stop-color="rgb(63.221741%, 74.082947%, 88.105774%)" stop-opacity="1"/>
<stop offset="0.632812" stop-color="rgb(63.026428%, 73.947144%, 88.043213%)" stop-opacity="1"/>
<stop offset="0.640625" stop-color="rgb(62.635803%, 73.677063%, 87.919617%)" stop-opacity="1"/>
<stop offset="0.644531" stop-color="rgb(62.243652%, 73.406982%, 87.796021%)" stop-opacity="1"/>
<stop offset="0.648438" stop-color="rgb(62.04834%, 73.272705%, 87.733459%)" stop-opacity="1"/>
<stop offset="0.65625" stop-color="rgb(61.853027%, 73.136902%, 87.670898%)" stop-opacity="1"/>
<stop offset="0.664062" stop-color="rgb(61.462402%, 72.866821%, 87.547302%)" stop-opacity="1"/>
<stop offset="0.671875" stop-color="rgb(61.071777%, 72.596741%, 87.42218%)" stop-opacity="1"/>
<stop offset="0.675781" stop-color="rgb(60.679626%, 72.32666%, 87.298584%)" stop-opacity="1"/>
<stop offset="0.679688" stop-color="rgb(60.484314%, 72.192383%, 87.237549%)" stop-opacity="1"/>
<stop offset="0.6875" stop-color="rgb(60.289001%, 72.05658%, 87.174988%)" stop-opacity="1"/>
<stop offset="0.695312" stop-color="rgb(59.898376%, 71.786499%, 87.049866%)" stop-opacity="1"/>
<stop offset="0.699219" stop-color="rgb(59.506226%, 71.516418%, 86.92627%)" stop-opacity="1"/>
<stop offset="0.703125" stop-color="rgb(59.310913%, 71.382141%, 86.865234%)" stop-opacity="1"/>
<stop offset="0.710937" stop-color="rgb(59.115601%, 71.246338%, 86.802673%)" stop-opacity="1"/>
<stop offset="0.71875" stop-color="rgb(58.724976%, 70.976257%, 86.677551%)" stop-opacity="1"/>
<stop offset="0.722656" stop-color="rgb(58.332825%, 70.706177%, 86.553955%)" stop-opacity="1"/>
<stop offset="0.726562" stop-color="rgb(58.137512%, 70.571899%, 86.491394%)" stop-opacity="1"/>
<stop offset="0.734375" stop-color="rgb(57.9422%, 70.436096%, 86.428833%)" stop-opacity="1"/>
<stop offset="0.742188" stop-color="rgb(57.551575%, 70.166016%, 86.305237%)" stop-opacity="1"/>
<stop offset="0.75" stop-color="rgb(57.16095%, 69.895935%, 86.181641%)" stop-opacity="1"/>
<stop offset="0.753906" stop-color="rgb(56.768799%, 69.625854%, 86.056519%)" stop-opacity="1"/>
<stop offset="0.757812" stop-color="rgb(56.573486%, 69.491577%, 85.995483%)" stop-opacity="1"/>
<stop offset="0.765625" stop-color="rgb(56.378174%, 69.355774%, 85.932922%)" stop-opacity="1"/>
<stop offset="0.773438" stop-color="rgb(55.987549%, 69.085693%, 85.809326%)" stop-opacity="1"/>
<stop offset="0.777344" stop-color="rgb(55.595398%, 68.817139%, 85.684204%)" stop-opacity="1"/>
<stop offset="0.78125" stop-color="rgb(55.400085%, 68.682861%, 85.623169%)" stop-opacity="1"/>
<stop offset="0.789063" stop-color="rgb(55.204773%, 68.547058%, 85.560608%)" stop-opacity="1"/>
<stop offset="0.796875" stop-color="rgb(54.814148%, 68.276978%, 85.437012%)" stop-opacity="1"/>
<stop offset="0.800781" stop-color="rgb(54.421997%, 68.006897%, 85.31189%)" stop-opacity="1"/>
<stop offset="0.804688" stop-color="rgb(54.226685%, 67.87262%, 85.250854%)" stop-opacity="1"/>
<stop offset="0.8125" stop-color="rgb(54.031372%, 67.736816%, 85.188293%)" stop-opacity="1"/>
<stop offset="0.820312" stop-color="rgb(53.640747%, 67.466736%, 85.063171%)" stop-opacity="1"/>
<stop offset="0.828125" stop-color="rgb(53.250122%, 67.196655%, 84.939575%)" stop-opacity="1"/>
<stop offset="0.832031" stop-color="rgb(52.857971%, 66.926575%, 84.815979%)" stop-opacity="1"/>
<stop offset="0.835938" stop-color="rgb(52.662659%, 66.792297%, 84.753418%)" stop-opacity="1"/>
<stop offset="0.84375" stop-color="rgb(52.467346%, 66.656494%, 84.690857%)" stop-opacity="1"/>
<stop offset="0.851562" stop-color="rgb(52.076721%, 66.386414%, 84.567261%)" stop-opacity="1"/>
<stop offset="0.855469" stop-color="rgb(51.68457%, 66.116333%, 84.443665%)" stop-opacity="1"/>
<stop offset="0.859375" stop-color="rgb(51.489258%, 65.982056%, 84.381104%)" stop-opacity="1"/>
<stop offset="0.867188" stop-color="rgb(51.293945%, 65.846252%, 84.318542%)" stop-opacity="1"/>
<stop offset="0.875" stop-color="rgb(50.90332%, 65.576172%, 84.194946%)" stop-opacity="1"/>
<stop offset="0.878906" stop-color="rgb(50.511169%, 65.306091%, 84.07135%)" stop-opacity="1"/>
<stop offset="0.882812" stop-color="rgb(50.315857%, 65.171814%, 84.008789%)" stop-opacity="1"/>
<stop offset="0.890625" stop-color="rgb(50.120544%, 65.036011%, 83.946228%)" stop-opacity="1"/>
<stop offset="0.898438" stop-color="rgb(49.729919%, 64.76593%, 83.822632%)" stop-opacity="1"/>
<stop offset="0.90625" stop-color="rgb(49.339294%, 64.49585%, 83.69751%)" stop-opacity="1"/>
<stop offset="0.910156" stop-color="rgb(48.947144%, 64.225769%, 83.573914%)" stop-opacity="1"/>
<stop offset="0.914062" stop-color="rgb(48.751831%, 64.091492%, 83.512878%)" stop-opacity="1"/>
<stop offset="0.921875" stop-color="rgb(48.556519%, 63.955688%, 83.450317%)" stop-opacity="1"/>
<stop offset="0.929688" stop-color="rgb(48.165894%, 63.685608%, 83.325195%)" stop-opacity="1"/>
<stop offset="0.933594" stop-color="rgb(47.773743%, 63.415527%, 83.201599%)" stop-opacity="1"/>
<stop offset="0.9375" stop-color="rgb(47.57843%, 63.28125%, 83.140564%)" stop-opacity="1"/>
<stop offset="0.945312" stop-color="rgb(47.383118%, 63.145447%, 83.078003%)" stop-opacity="1"/>
<stop offset="0.953125" stop-color="rgb(46.992493%, 62.875366%, 82.952881%)" stop-opacity="1"/>
<stop offset="0.957031" stop-color="rgb(46.600342%, 62.605286%, 82.829285%)" stop-opacity="1"/>
<stop offset="0.960937" stop-color="rgb(46.405029%, 62.471008%, 82.76825%)" stop-opacity="1"/>
<stop offset="0.96875" stop-color="rgb(46.209717%, 62.335205%, 82.705688%)" stop-opacity="1"/>
<stop offset="0.976562" stop-color="rgb(45.819092%, 62.065125%, 82.580566%)" stop-opacity="1"/>
<stop offset="0.984375" stop-color="rgb(45.428467%, 61.795044%, 82.45697%)" stop-opacity="1"/>
<stop offset="1" stop-color="rgb(45.16449%, 61.613464%, 82.373047%)" stop-opacity="1"/>
</linearGradient>
</defs>
<path fill-rule="evenodd" fill="#126cea" fill-opacity="1" d="M 1936.488281 0 C 3001.578125 0 3872.980469 871.421875 3872.980469 1936.488281 C 3872.980469 3001.578125 3001.578125 3872.980469 1936.488281 3872.980469 C 871.414062 3872.980469 0 3001.578125 0 1936.488281 C 0 871.421875 871.414062 0 1936.488281 0 "/>
<g clip-path="url(#clip-0)">
<g clip-path="url(#clip-1)">
<path fill-rule="nonzero" fill="rgb(100%, 100%, 100%)" d="M 842.203125 683.140625 L 842.203125 3175.578125 L 3045.050781 3175.578125 L 3045.050781 683.140625 Z M 842.203125 683.140625 "/>
</g>
</g>
</svg>
